# xmcd
#
# Track frame offsets:
#	150
#	39544
#	56466
#	79632
#	101629
#	117540
#	133353
#	146856
#	162796
#	179367
#	199238
#	212933
#	236062
#	258073
#	271370
#	289218
#	309678
#
# Disc length: 4551 seconds
#
# Revision: 3
# Processed by: cddbd v1.5.2PL0 Copyright (c) Steve Scherf et al.
# Submitted via: CDex 1.51
#
DISCID=0a11c511
DTITLE=Sumpf Blues Band - Bluesfeeling
DYEAR=2005
DGENRE=Blues
TTITLE0=Slow Freight
TTITLE1=Every Things Gonna by Allright
TTITLE2=Humming the Blues
TTITLE3=Strut
TTITLE4=Honey Dripper
TTITLE5=Poldi's Chicago Blues
TTITLE6=Bucket
TTITLE7=Jump for Joy
TTITLE8=Mary Ann
TTITLE9=Whoza Mitwana
TTITLE10=No More Lonely Nights
TTITLE11=Hide Away
TTITLE12=I Got A Woman
TTITLE13=Jump Stream
TTITLE14=Water From an Ancient Well
TTITLE15=Chain of Fools
TTITLE16=I Almost Lost My Mind
EXTD=YEAR: 2005
EXTT0=
EXTT1=
EXTT2=
EXTT3=
EXTT4=
EXTT5=
EXTT6=
EXTT7=
EXTT8=
EXTT9=
EXTT10=
EXTT11=
EXTT12=
EXTT13=
EXTT14=
EXTT15=
EXTT16=
PLAYORDER=
